<?xml version="1.0" encoding="UTF-8" standalone="no"?><!DOCTYPE svg PUBLIC "-//W3C//DTD SVG 1.1//EN" "http://www.w3.org/Graphics/SVG/1.1/DTD/svg11.dtd"><svg width="100%" height="100%" viewBox="0 0 1000 1000" version="1.1" xmlns="http://www.w3.org/2000/svg" xmlns:xlink="http://www.w3.org/1999/xlink" xml:space="preserve" xmlns:serif="http://www.serif.com/" style="fill-rule:evenodd;clip-rule:evenodd;stroke-linejoin:round;stroke-miterlimit:2;"><rect id="Artboard1" x="0" y="0" width="1000" height="1000" style="fill:none;"/><clipPath id="_clip1"><rect id="Artboard11" serif:id="Artboard1" x="0" y="0" width="1000" height="1000"/></clipPath><g clip-path="url(#_clip1)"><g id="Layer3"><path d="M549.372,-145.235l-53.033,-53.033l-707.107,707.107l53.033,53.033l707.107,-707.107Z" style="fill:#333;"/><path d="M435.14,-246.967l-53.033,-53.033l-707.107,707.107l53.033,53.033l707.107,-707.107Z" style="fill:#333;"/><path d="M655.438,-39.169l-53.033,-53.033l-707.107,707.107l53.033,53.033l707.107,-707.107Z" style="fill:#333;"/><path d="M842.417,-14.017l-53.033,-53.033l-882.95,882.951l53.033,53.033l882.95,-882.951Z" style="fill:#333;"/><path d="M1028.03,12.5l-53.033,-53.033l-1015.53,1015.53l53.033,53.033l1015.53,-1015.53Z" style="fill:#333;"/><path d="M1063.64,189.029l-53.033,-53.033l-874.107,874.107l53.033,53.033l874.107,-874.107Z" style="fill:#333;"/><path d="M1079.7,385.095l-53.033,-53.033l-707.107,707.107l53.033,53.033l707.107,-707.107Z" style="fill:#333;"/><path d="M1185.77,491.161l-53.033,-53.033l-707.107,707.107l53.033,53.033l707.107,-707.107Z" style="fill:#333;"/><path d="M1292.57,597.963l-53.033,-53.033l-707.107,707.107l53.033,53.033l707.107,-707.107Z" style="fill:#333;"/><g><g><path d="M606.802,115.533l-53.033,-53.033l-509.248,509.248l53.033,53.033l509.248,-509.248Z" style="fill:#fff;"/><path d="M765.533,168.934l-53.033,-53.033l-612.5,612.5l53.033,53.033l612.5,-612.5Z" style="fill:#fff;"/><path d="M866.421,598.376l53.033,53.033l-282.842,282.842l-53.033,-53.033l282.842,-282.842Z" style="fill:#fff;"/><path d="M335.943,67.897l53.033,53.033l-282.843,282.843l-53.033,-53.033l282.843,-282.843Z" style="fill:#fff;"/><path d="M871.967,380.698l53.033,53.033l-509.248,509.248l-53.033,-53.033l509.248,-509.248Z" style="fill:#fff;"/><path d="M818.566,221.967l53.033,53.033l-612.5,612.5l-53.033,-53.033l612.5,-612.5Z" style="fill:#fff;"/></g></g></g></g></svg>