<?xml version="1.0" encoding="UTF-8" standalone="no"?><!DOCTYPE svg PUBLIC "-//W3C//DTD SVG 1.1//EN" "http://www.w3.org/Graphics/SVG/1.1/DTD/svg11.dtd"><svg width="100%" height="100%" viewBox="0 0 4167 4167" version="1.1" xmlns="http://www.w3.org/2000/svg" xmlns:xlink="http://www.w3.org/1999/xlink" xml:space="preserve" xmlns:serif="http://www.serif.com/" style="fill-rule:evenodd;clip-rule:evenodd;stroke-linejoin:round;stroke-miterlimit:2;"><rect id="Artboard1" x="0" y="0" width="4166.67" height="4166.67" style="fill:none;"/><clipPath id="_clip1"><rect id="Artboard11" serif:id="Artboard1" x="0" y="0" width="4166.67" height="4166.67"/></clipPath><g clip-path="url(#_clip1)"><g id="Layer3"><path d="M2289.05,-605.146l-220.971,-220.97l-2946.28,2946.28l220.971,220.971l2946.28,-2946.28Z" style="fill:#333;"/><path d="M1813.08,-1029.03l-220.97,-220.971l-2946.28,2946.28l220.971,220.971l2946.28,-2946.28Z" style="fill:#333;"/><path d="M2730.99,-163.204l-220.971,-220.971l-2946.28,2946.28l220.971,220.97l2946.28,-2946.28Z" style="fill:#333;"/><path d="M3510.07,-58.402l-220.971,-220.971l-3678.96,3678.96l220.97,220.971l3678.96,-3678.96Z" style="fill:#333;"/><path d="M4283.47,52.083l-220.971,-220.971l-4231.39,4231.39l220.971,220.971l4231.39,-4231.39Z" style="fill:#333;"/><path d="M4431.82,787.621l-220.971,-220.97l-3642.11,3642.11l220.971,220.971l3642.11,-3642.11Z" style="fill:#333;"/><path d="M4498.76,1604.56l-220.971,-220.971l-2946.28,2946.28l220.971,220.97l2946.28,-2946.28Z" style="fill:#333;"/><path d="M4940.7,2046.51l-220.971,-220.971l-2946.28,2946.28l220.971,220.971l2946.28,-2946.28Z" style="fill:#333;"/><path d="M5385.71,2491.51l-220.971,-220.971l-2946.28,2946.28l220.971,220.971l2946.28,-2946.28Z" style="fill:#333;"/><g><g><path d="M2528.34,481.388l-220.97,-220.971l-2121.87,2121.87l220.971,220.97l2121.86,-2121.86Z" style="fill:#fff;"/><path d="M3189.72,703.892l-220.971,-220.971l-2552.08,2552.08l220.971,220.971l2552.08,-2552.08Z" style="fill:#fff;"/><path d="M3645.83,2457.49l220.971,220.971l-1250,1250l-220.971,-220.971l1250,-1250Z" style="fill:#fff;"/><path d="M1435.51,247.16l220.971,220.971l-1250,1250l-220.971,-220.971l1250,-1250Z" style="fill:#fff;"/><path d="M3633.2,1586.24l220.971,220.971l-2121.87,2121.87l-220.971,-220.971l2121.87,-2121.87Z" style="fill:#fff;"/><path d="M3410.69,924.862l220.971,220.971l-2552.08,2552.08l-220.971,-220.971l2552.08,-2552.08Z" style="fill:#fff;"/></g></g></g></g></svg>