<?xml version="1.0" encoding="UTF-8" standalone="no"?>
<!DOCTYPE svg PUBLIC "-//W3C//DTD SVG 1.1//EN" "http://www.w3.org/Graphics/SVG/1.1/DTD/svg11.dtd">
<svg width="100%" height="100%" viewBox="0 0 2000 2000" version="1.1" xmlns="http://www.w3.org/2000/svg" xmlns:xlink="http://www.w3.org/1999/xlink" xml:space="preserve" xmlns:serif="http://www.serif.com/" style="fill-rule:evenodd;clip-rule:evenodd;stroke-linejoin:round;stroke-miterlimit:2;">
    <rect id="Artboard1" x="0" y="0" width="2000" height="2000" style="fill:none;"/>
    <g id="Artboard11" serif:id="Artboard1">
        <g id="Layer2" transform="matrix(1,0,0,1,0,1)">
            <g transform="matrix(1.13073,0,0,1.06902,2.57098e-13,0)">
                <path d="M294.5,0L589,623L-0,623L294.5,0Z" style="fill:white;fill-opacity:0.6;"/>
            </g>
            <g transform="matrix(1.13073,0,0,1.06902,2.57098e-13,667)">
                <path d="M294.5,0L589,623L-0,623L294.5,0Z" style="fill:white;fill-opacity:0.8;"/>
            </g>
            <g transform="matrix(1.13073,0,0,1.06902,2.57098e-13,1332)">
                <path d="M294.5,0L589,623L-0,623L294.5,0Z" style="fill:white;"/>
            </g>
        </g>
        <g id="Layer21" serif:id="Layer2" transform="matrix(1,0,0,1,666,1)">
            <g transform="matrix(1.13073,0,0,1.06902,2.57098e-13,0)">
                <path d="M294.5,0L589,623L-0,623L294.5,0Z" style="fill:white;fill-opacity:0.6;"/>
            </g>
            <g transform="matrix(1.13073,0,0,1.06902,2.57098e-13,667)">
                <path d="M294.5,0L589,623L-0,623L294.5,0Z" style="fill:white;fill-opacity:0.8;"/>
            </g>
            <g transform="matrix(1.13073,0,0,1.06902,2.57098e-13,1332)">
                <path d="M294.5,0L589,623L-0,623L294.5,0Z" style="fill:white;"/>
            </g>
        </g>
        <g id="Layer22" serif:id="Layer2" transform="matrix(1,0,0,1,1332,1)">
            <g transform="matrix(1.13073,0,0,1.06902,2.57098e-13,0)">
                <path d="M294.5,0L589,623L-0,623L294.5,0Z" style="fill:white;fill-opacity:0.6;"/>
            </g>
            <g transform="matrix(1.13073,0,0,1.06902,2.57098e-13,667)">
                <path d="M294.5,0L589,623L-0,623L294.5,0Z" style="fill:white;fill-opacity:0.8;"/>
            </g>
            <g transform="matrix(1.13073,0,0,1.06902,2.57098e-13,1332)">
                <path d="M294.5,0L589,623L-0,623L294.5,0Z" style="fill:white;"/>
            </g>
        </g>
    </g>
</svg>
